<svg width="20" height="20" viewBox="0 0 20 20" fill="none" xmlns="http://www.w3.org/2000/svg">
<path d="M14.0921 10.0525C14.1132 12.3225 16.0835 13.0779 16.1053 13.0875C16.0887 13.1408 15.7905 14.164 15.0673 15.2209C14.4421 16.1347 13.7932 17.0451 12.7711 17.064C11.7667 17.0825 11.4437 16.4684 10.2954 16.4684C9.14751 16.4684 8.78868 17.0451 7.83793 17.0825C6.85129 17.1199 6.09994 16.0944 5.46958 15.184C4.18145 13.3217 3.19706 9.92158 4.51885 7.62645C5.17549 6.48669 6.34895 5.76494 7.62264 5.74643C8.5915 5.72795 9.50596 6.39824 10.0983 6.39824C10.6902 6.39824 11.8015 5.59215 12.9697 5.71054C13.4588 5.73089 14.8317 5.9081 15.7132 7.19844C15.6422 7.24248 14.0751 8.15474 14.0921 10.0525V10.0525ZM12.2045 4.47847C12.7283 3.84441 13.0809 2.96174 12.9847 2.0835C12.2297 2.11384 11.3167 2.58663 10.7751 3.22034C10.2897 3.78152 9.86468 4.67973 9.97937 5.54059C10.8209 5.6057 11.6807 5.11293 12.2045 4.47847Z" fill="black"/>
</svg>
