<svg width="72" height="32" viewBox="0 0 72 32" fill="none" xmlns="http://www.w3.org/2000/svg">
<path d="M63.3668 20.1723L60.3409 5.18716H64.6059L65.7298 14.2935H66.018L66.8249 5.18716H71.0899L67.4012 25.3595H63.3668L64.6059 20.1723H63.3668Z" fill="#001C24"/>
<path d="M58.9948 20.1723H54.8163V0H58.9948V20.1723Z" fill="#001C24"/>
<path d="M50.8195 5.18716H52.8944V8.90462H50.8195V14.38C50.8195 15.1676 50.9348 15.696 51.1653 15.9649C51.4151 16.2147 51.8953 16.3396 52.6062 16.3396H53.1825V20.1723H51.7416C50.8003 20.1723 50.0126 20.0858 49.3786 19.9129C48.7446 19.74 48.2355 19.4615 47.8513 19.0772C47.467 18.6738 47.1885 18.1647 47.0156 17.5499C46.8619 16.9159 46.785 16.1474 46.785 15.2445V8.90462H45.9205V5.18716H46.785V0.864526H50.8195V5.18716Z" fill="#001C24"/>
<path d="M35.2691 15.792C35.2691 15.4462 35.2787 15.1292 35.298 14.841C35.3172 14.5529 35.346 14.3031 35.3844 14.0918C35.4036 13.8612 35.4324 13.6403 35.4709 13.429H39.0442C39.0058 13.5827 38.977 13.7556 38.9578 13.9477C38.9386 14.1206 38.9194 14.3127 38.9002 14.5241C38.8809 14.7354 38.8713 14.9755 38.8713 15.2445C38.8713 15.6287 38.9578 15.9553 39.1307 16.2243C39.3036 16.4932 39.6014 16.6277 40.024 16.6277C40.3506 16.6277 40.61 16.5413 40.8021 16.3684C41.0134 16.1763 41.1191 15.8593 41.1191 15.4174C41.1383 14.841 40.9558 14.3896 40.5716 14.063C40.1873 13.7364 39.6206 13.3713 38.8713 12.9679C38.4679 12.7374 38.0548 12.5068 37.6322 12.2763C37.2095 12.0457 36.8253 11.7864 36.4795 11.4982C36.1337 11.1908 35.8455 10.8354 35.615 10.432C35.3844 10.0093 35.2691 9.50019 35.2691 8.90463C35.2691 8.34749 35.3556 7.82877 35.5285 7.34848C35.7014 6.84898 35.9704 6.42632 36.3354 6.08051C36.7196 5.71548 37.1999 5.42731 37.7763 5.21598C38.3718 5.00465 39.0731 4.89899 39.88 4.89899C41.5129 4.89899 42.7233 5.33125 43.511 6.19578C44.3179 7.04109 44.7213 8.44355 44.7213 10.4031H41.1191C41.1191 9.78837 41.023 9.3561 40.8309 9.10635C40.658 8.8566 40.4083 8.73172 40.0817 8.73172C39.7743 8.73172 39.5534 8.79896 39.4189 8.93344C39.2844 9.06793 39.2171 9.23123 39.2171 9.42334C39.2171 9.78837 39.4189 10.0765 39.8223 10.2879C40.245 10.4992 40.7733 10.7778 41.4073 11.1236C41.926 11.3925 42.3871 11.6711 42.7905 11.9593C43.194 12.2283 43.5398 12.5452 43.828 12.9103C44.1161 13.2561 44.3371 13.6595 44.4908 14.1206C44.6445 14.5817 44.7213 15.1292 44.7213 15.7632V16.0514C44.7213 17.5115 44.3179 18.6161 43.511 19.3654C42.7233 20.0954 41.6282 20.4605 40.2258 20.4605C38.708 20.4605 37.4977 20.1051 36.5947 19.3942C35.711 18.6642 35.2691 17.4634 35.2691 15.792Z" fill="#001C24"/>
<path d="M28.8931 16.6277C29.5463 16.6277 29.8729 16.2147 29.8729 15.3886C29.8729 15.1388 29.8633 14.9179 29.8441 14.7258C29.8249 14.5144 29.8056 14.3319 29.7864 14.1782C29.748 14.0053 29.7096 13.8516 29.6712 13.7172H33.5615C33.6 13.8324 33.6384 13.9765 33.6768 14.1494C33.696 14.2839 33.7152 14.4472 33.7344 14.6393C33.7536 14.8314 33.7632 15.062 33.7632 15.3309V15.7632C33.7632 18.8947 32.1687 20.4605 28.9795 20.4605C27.2313 20.4605 25.9441 19.9994 25.118 19.0772C24.2919 18.1359 23.8788 16.7622 23.8788 14.9563V10.4031C23.8788 8.59724 24.2631 7.23321 25.0315 6.31105C25.8192 5.36967 27.0872 4.89899 28.8354 4.89899C30.5837 4.89899 31.8421 5.36967 32.6105 6.31105C33.3982 7.23321 33.7921 8.59724 33.7921 10.4031V12.9967H27.7692V14.0918C27.7692 15.11 27.8557 15.792 28.0286 16.1378C28.2207 16.4644 28.5089 16.6277 28.8931 16.6277ZM28.8643 8.73172C28.5569 8.73172 28.3071 8.87581 28.115 9.16399C27.9229 9.45216 27.8076 10.0477 27.7692 10.9507L29.9017 10.9795C29.9017 10.0765 29.8056 9.48098 29.6135 9.1928C29.4406 8.88542 29.1909 8.73172 28.8643 8.73172Z" fill="#001C24"/>
<path d="M16.0553 5.18716V13.5154C16.0553 14.0918 16.0649 14.5721 16.0841 14.9563C16.1225 15.3213 16.1801 15.6095 16.257 15.8208C16.3338 16.013 16.4203 16.1474 16.5163 16.2243C16.6316 16.3011 16.7661 16.3396 16.9198 16.3396C17.0735 16.3396 17.208 16.3011 17.3232 16.2243C17.4385 16.1474 17.5346 16.0034 17.6114 15.792C17.7075 15.5807 17.7747 15.2829 17.8131 14.8987C17.8708 14.5144 17.8996 14.0053 17.8996 13.3713V5.18716H22.2222V20.1723H18.0725L18.62 16.4548H18.303C18.207 17.2617 18.0533 17.9245 17.842 18.4432C17.6306 18.962 17.3713 19.375 17.0639 19.6824C16.7757 19.9706 16.4395 20.1723 16.0553 20.2876C15.6902 20.4028 15.2964 20.4605 14.8737 20.4605C14.2206 20.4605 13.6922 20.3452 13.2888 20.1147C12.8853 19.8649 12.5683 19.4999 12.3378 19.0196C12.1073 18.5393 11.944 17.9341 11.8479 17.2041C11.7711 16.474 11.7326 15.6287 11.7326 14.6681V5.18716H16.0553Z" fill="#001C24"/>
<path d="M7.11794 8.87581C7.69429 8.97187 8.17458 9.10635 8.55882 9.27926C8.94305 9.45216 9.26004 9.70191 9.50979 10.0285C9.75955 10.3551 9.93245 10.7778 10.0285 11.2965C10.1438 11.796 10.2014 12.4396 10.2014 13.2273C10.2014 14.0149 10.1342 14.6777 9.99969 15.2157C9.88442 15.7536 9.67309 16.1955 9.36571 16.5413C9.05832 16.8679 8.64527 17.108 8.12655 17.2617C7.60784 17.3962 6.94503 17.4634 6.13814 17.4634V17.7516C6.90661 17.7516 7.5502 17.8285 8.06892 17.9822C8.58763 18.1359 9.00068 18.376 9.30807 18.7026C9.63467 19.01 9.86521 19.4038 9.99969 19.8841C10.1342 20.3644 10.2014 20.9312 10.2014 21.5844C10.2014 23.0637 9.76915 24.1107 8.90462 24.7255C8.05931 25.3402 6.79134 25.6476 5.10071 25.6476C1.70024 25.6476 0 24.1587 0 21.1809C0 20.8351 0.00960585 20.5373 0.0288176 20.2876C0.0480293 20.0378 0.0768468 19.8361 0.11527 19.6824C0.134482 19.4903 0.163299 19.3366 0.201723 19.2213H4.09209C4.05367 19.2982 4.02485 19.4038 4.00564 19.5383C3.96722 19.6344 3.9384 19.7688 3.91919 19.9418C3.89998 20.1147 3.89037 20.3356 3.89037 20.6046C3.89037 21.4114 4.31303 21.8149 5.15834 21.8149C5.92681 21.8149 6.31105 21.4595 6.31105 20.7486C6.31105 20.5181 6.28223 20.326 6.22459 20.1723C6.16696 20.0186 6.05169 19.8745 5.87878 19.74C5.72509 19.6055 5.51376 19.4711 5.2448 19.3366C4.97583 19.1829 4.63002 19.01 4.20736 18.8179C3.63101 18.5489 3.08348 18.2895 2.56476 18.0398C2.06526 17.7708 1.62339 17.4634 1.23915 17.1176C0.854921 16.7526 0.547534 16.3011 0.316993 15.7632C0.105664 15.2253 0 14.5337 0 13.6883V10.6913C0 8.88542 0.413052 7.52139 1.23915 6.59922C2.06526 5.65785 3.35244 5.18716 5.10071 5.18716H10.2302V8.87581L7.11794 8.58764V8.87581ZM6.31105 12.478C6.31105 11.7672 6.28223 11.1908 6.22459 10.749C6.16696 10.3071 6.09011 9.96127 5.99405 9.71152C5.89799 9.44256 5.77312 9.26004 5.61942 9.16399C5.46573 9.06793 5.29282 9.0199 5.10071 9.0199C4.90859 9.0199 4.73569 9.06793 4.58199 9.16399C4.4283 9.26004 4.30342 9.44256 4.20736 9.71152C4.1113 9.96127 4.03446 10.3071 3.97682 10.749C3.91919 11.1908 3.89037 11.7672 3.89037 12.478C3.89037 13.1888 3.91919 13.7748 3.97682 14.2359C4.03446 14.6777 4.1113 15.0332 4.20736 15.3021C4.30342 15.5519 4.4283 15.7248 4.58199 15.8208C4.73569 15.9169 4.90859 15.9649 5.10071 15.9649C5.29282 15.9649 5.46573 15.9169 5.61942 15.8208C5.77312 15.7248 5.89799 15.5519 5.99405 15.3021C6.09011 15.0332 6.16696 14.6777 6.22459 14.2359C6.28223 13.7748 6.31105 13.1888 6.31105 12.478Z" fill="#001C24"/>
<path d="M54.1878 27.5304C54.1377 27.5027 54.0521 27.4924 53.9773 27.5052C52.3905 27.7759 50.9234 28.1227 49.3364 28.3899C38.468 30.3238 31.0699 30.1672 20.3181 28.1903C19.1261 27.9824 18.0237 27.7048 16.8234 27.5011C16.7635 27.4909 16.695 27.5006 16.6587 27.5243L16.6572 27.5252C16.6255 27.5459 16.6252 27.5733 16.657 27.594C17.1442 27.911 17.7165 28.1947 18.2915 28.4821C20.0978 29.3861 22.2152 30.1396 24.6195 30.736C33.5746 32.986 44.5197 32.1403 51.659 28.9259C52.2915 28.6441 52.8866 28.3472 53.4404 28.0345C53.6828 27.891 53.9635 27.7726 54.198 27.629C54.2456 27.5999 54.2412 27.5599 54.19 27.5316L54.1878 27.5304Z" fill="#C7FD02"/>
<path d="M54.3379 25.6479C54.1443 25.6375 53.9835 25.8016 54.0087 26.003C54.0277 26.1547 54.1633 26.2652 54.3158 26.2748C55.2413 26.333 55.6468 26.7658 55.63 27.6766C55.6268 27.8497 55.7645 27.9927 55.9377 27.9958C55.9396 27.9959 55.9416 27.9959 55.9436 27.9959C56.1141 27.9959 56.2537 27.8593 56.2569 27.6882C56.2802 26.4281 55.6166 25.7226 54.3379 25.6479Z" fill="#C7FD02"/>
<path d="M17.0722 26.0782C17.1298 25.8674 16.9565 25.6849 16.7516 25.6968C15.4587 25.7689 14.7946 26.4573 14.8337 27.6866C14.839 27.8563 15.0088 27.9885 15.1778 27.936C15.1929 27.9313 15.2134 27.9215 15.2455 27.9006C15.3755 27.8158 15.4562 27.6752 15.4597 27.5248C15.4787 26.7273 15.8908 26.3465 16.7823 26.2953C16.9166 26.2876 17.0382 26.2025 17.0722 26.0782Z" fill="#C7FD02"/>
</svg>
