<svg width="152" height="61" viewBox="0 0 152 61" fill="none" xmlns="http://www.w3.org/2000/svg">
<path d="M135.487 43.1312L129.017 11.0909H138.136L140.539 30.5615H141.156L142.881 11.0909H152L144.113 54.222H135.487L138.136 43.1312H135.487Z" fill="white"/>
<path d="M126.139 43.1311H117.205V0H126.139V43.1311Z" fill="white"/>
<path d="M108.659 11.0909H113.095V19.0393H108.659V30.7463C108.659 32.4305 108.906 33.5601 109.398 34.1352C109.932 34.6692 110.959 34.9362 112.479 34.9362H113.712V43.1311H110.631C108.618 43.1311 106.934 42.9463 105.578 42.5766C104.223 42.2069 103.134 41.6113 102.313 40.7897C101.491 39.9271 100.895 38.8386 100.526 37.5241C100.197 36.1685 100.033 34.5255 100.033 32.5948V19.0393H98.1844V11.0909H100.033V1.84848H108.659V11.0909Z" fill="white"/>
<path d="M75.4103 33.7655C75.4103 33.0261 75.4308 32.3484 75.4719 31.7322C75.513 31.116 75.5746 30.582 75.6568 30.1302C75.6978 29.6373 75.7595 29.1649 75.8416 28.713H83.482C83.3998 29.0416 83.3382 29.4113 83.2971 29.8221C83.2561 30.1918 83.215 30.6026 83.1739 31.0544C83.1328 31.5063 83.1123 32.0197 83.1123 32.5948C83.1123 33.4164 83.2971 34.1147 83.6668 34.6898C84.0365 35.2649 84.6732 35.5524 85.5769 35.5524C86.2752 35.5524 86.8298 35.3675 87.2406 34.9979C87.6924 34.5871 87.9183 33.9093 87.9183 32.9645C87.9594 31.7322 87.5692 30.7669 86.7476 30.0686C85.9261 29.3703 84.7143 28.5898 83.1123 27.7272C82.2497 27.2342 81.3665 26.7413 80.4628 26.2484C79.5591 25.7555 78.7376 25.2009 77.9982 24.5848C77.2588 23.9275 76.6426 23.1676 76.1497 22.305C75.6568 21.4013 75.4103 20.3127 75.4103 19.0393C75.4103 17.8481 75.5951 16.739 75.9648 15.7121C76.3345 14.6441 76.9096 13.7404 77.6901 13.001C78.5116 12.2205 79.5386 11.6043 80.7709 11.1525C82.0443 10.7006 83.5436 10.4747 85.2689 10.4747C88.7604 10.4747 91.3483 11.399 93.0325 13.2474C94.7577 15.0548 95.6203 18.0535 95.6203 22.2434H87.9183C87.9183 20.9289 87.713 20.0046 87.3022 19.4706C86.9325 18.9366 86.3985 18.6696 85.7002 18.6696C85.0429 18.6696 84.5705 18.8134 84.283 19.1009C83.9955 19.3885 83.8517 19.7376 83.8517 20.1484C83.8517 20.9289 84.283 21.545 85.1456 21.9969C86.0493 22.4487 87.1789 23.0444 88.5345 23.7838C89.6436 24.3588 90.6294 24.9545 91.4921 25.5706C92.3547 26.1457 93.0941 26.8235 93.7102 27.6039C94.3264 28.3433 94.7988 29.2059 95.1274 30.1918C95.456 31.1777 95.6203 32.3484 95.6203 33.7039V34.3201C95.6203 37.4419 94.7577 39.8039 93.0325 41.4059C91.3483 42.9668 89.0069 43.7473 86.0082 43.7473C82.7631 43.7473 80.1753 42.9874 78.2446 41.4675C76.3551 39.9066 75.4103 37.3393 75.4103 33.7655Z" fill="white"/>
<path d="M61.7774 35.5524C63.174 35.5524 63.8723 34.6692 63.8723 32.9029C63.8723 32.3689 63.8518 31.8965 63.8107 31.4857C63.7697 31.0339 63.7286 30.6437 63.6875 30.315C63.6053 29.9453 63.5232 29.6167 63.441 29.3292H71.7592C71.8413 29.5756 71.9235 29.8837 72.0057 30.2534C72.0467 30.541 72.0878 30.8901 72.1289 31.3009C72.17 31.7117 72.1905 32.2046 72.1905 32.7797V33.7039C72.1905 40.3995 68.7811 43.7473 61.9623 43.7473C58.2242 43.7473 55.472 42.7615 53.7057 40.7897C51.9394 38.777 51.0562 35.8399 51.0562 31.9787V22.2434C51.0562 18.3821 51.8778 15.4656 53.5209 13.4939C55.205 11.4811 57.9161 10.4747 61.6542 10.4747C65.3922 10.4747 68.0828 11.4811 69.7259 13.4939C71.41 15.4656 72.2521 18.3821 72.2521 22.2434V27.7888H59.3744V30.1302C59.3744 32.3073 59.5592 33.7655 59.9289 34.5049C60.3397 35.2032 60.9559 35.5524 61.7774 35.5524ZM61.7158 18.6696C61.0586 18.6696 60.5246 18.9777 60.1138 19.5939C59.703 20.21 59.4565 21.4834 59.3744 23.4141L63.934 23.4757C63.934 21.545 63.7286 20.2716 63.3178 19.6555C62.9481 18.9982 62.4141 18.6696 61.7158 18.6696Z" fill="white"/>
<path d="M34.3284 11.0909V28.8979C34.3284 30.1302 34.3489 31.1571 34.39 31.9787C34.4722 32.7591 34.5954 33.3753 34.7597 33.8271C34.924 34.2379 35.1089 34.5255 35.3142 34.6898C35.5607 34.8541 35.8482 34.9362 36.1769 34.9362C36.5055 34.9362 36.793 34.8541 37.0395 34.6898C37.2859 34.5255 37.4913 34.2174 37.6556 33.7655C37.861 33.3137 38.0048 32.677 38.087 31.8554C38.2102 31.0339 38.2718 29.9453 38.2718 28.5898V11.0909H47.5142V43.1312H38.6415L39.8122 35.1827H39.1344C38.929 36.9079 38.6004 38.3251 38.1486 39.4342C37.6967 40.5433 37.1422 41.4264 36.4849 42.0837C35.8688 42.6998 35.1499 43.1312 34.3284 43.3776C33.5479 43.6241 32.7058 43.7473 31.8021 43.7473C30.4055 43.7473 29.2759 43.5008 28.4133 43.0079C27.5506 42.4739 26.8729 41.6934 26.3799 40.6665C25.887 39.6396 25.5378 38.3456 25.3325 36.7847C25.1682 35.2238 25.086 33.4164 25.086 31.3625V11.0909H34.3284Z" fill="white"/>
<path d="M15.2191 18.9777C16.4515 19.1831 17.4784 19.4706 18.2999 19.8403C19.1215 20.21 19.7992 20.744 20.3333 21.4423C20.8673 22.1407 21.237 23.0444 21.4423 24.1534C21.6888 25.2215 21.812 26.5975 21.812 28.2817C21.812 29.9659 21.6683 31.383 21.3807 32.5332C21.1343 33.6834 20.6824 34.6282 20.0252 35.3675C19.3679 36.0659 18.4848 36.5793 17.3757 36.9079C16.2666 37.1955 14.8494 37.3393 13.1242 37.3393V37.9554C14.7673 37.9554 16.1434 38.1197 17.2525 38.4483C18.3615 38.777 19.2447 39.2904 19.9019 39.9887C20.6003 40.646 21.0932 41.4881 21.3807 42.515C21.6683 43.5419 21.812 44.7537 21.812 46.1503C21.812 49.3133 20.8878 51.552 19.0393 52.8665C17.2319 54.1809 14.5208 54.8382 10.906 54.8382C3.63534 54.8382 0 51.6547 0 45.2877C0 44.5483 0.0205386 43.9116 0.0616159 43.3776C0.102693 42.8436 0.164309 42.4123 0.246464 42.0837C0.287541 41.6729 0.349157 41.3443 0.431311 41.0978H8.74946C8.66731 41.2621 8.60569 41.4881 8.56461 41.7756C8.48246 41.981 8.42084 42.2685 8.37977 42.6382C8.33869 43.0079 8.31815 43.4803 8.31815 44.0554C8.31815 45.7806 9.22185 46.6433 11.0293 46.6433C12.6723 46.6433 13.4939 45.8833 13.4939 44.3635C13.4939 43.8705 13.4323 43.4598 13.309 43.1312C13.1858 42.8025 12.9393 42.4945 12.5696 42.2069C12.241 41.9194 11.7892 41.6318 11.2141 41.3443C10.639 41.0157 9.89963 40.646 8.99592 40.2352C7.76361 39.6601 6.5929 39.1056 5.48382 38.5716C4.41581 37.9965 3.47103 37.3393 2.64948 36.5999C1.82794 35.8194 1.1707 34.8541 0.677775 33.7039C0.225925 32.5538 0 31.075 0 29.2676V22.8595C0 18.9982 0.883162 16.0818 2.64948 14.1101C4.41581 12.0973 7.16799 11.0909 10.906 11.0909H21.8737V18.9777L15.2191 18.3616V18.9777ZM13.4939 26.6797C13.4939 25.1598 13.4323 23.9275 13.309 22.9827C13.1858 22.038 13.0215 21.2986 12.8161 20.7646C12.6107 20.1895 12.3437 19.7993 12.0151 19.5939C11.6865 19.3885 11.3168 19.2858 10.906 19.2858C10.4952 19.2858 10.1256 19.3885 9.79693 19.5939C9.46831 19.7993 9.20131 20.1895 8.99592 20.7646C8.79054 21.2986 8.62623 22.038 8.503 22.9827C8.37977 23.9275 8.31815 25.1598 8.31815 26.6797C8.31815 28.1996 8.37977 29.4524 8.503 30.4383C8.62623 31.383 8.79054 32.143 8.99592 32.7181C9.20131 33.2521 9.46831 33.6218 9.79693 33.8271C10.1256 34.0325 10.4952 34.1352 10.906 34.1352C11.3168 34.1352 11.6865 34.0325 12.0151 33.8271C12.3437 33.6218 12.6107 33.2521 12.8161 32.7181C13.0215 32.143 13.1858 31.383 13.309 30.4383C13.4323 29.4524 13.4939 28.1996 13.4939 26.6797Z" fill="white"/>
<path d="M116.4 51.0967C116.293 51.0375 116.11 51.0155 115.95 51.0428C112.557 51.6215 109.42 52.3632 106.027 52.9344C82.789 57.0694 66.9707 56.7347 43.982 52.5078C41.4332 52.0631 39.0762 51.4696 36.5099 51.0341C36.3817 51.0123 36.2352 51.0329 36.1576 51.0836L36.1544 51.0857C36.0866 51.13 36.0861 51.1885 36.1541 51.2327C37.1958 51.9105 38.4193 52.5172 39.6489 53.1316C43.5109 55.0645 48.0382 56.6756 53.179 57.9506C72.3262 62.7615 95.7284 60.9533 110.993 54.0806C112.346 53.478 113.618 52.8432 114.802 52.1745C115.32 51.8678 115.92 51.6145 116.422 51.3076C116.524 51.2454 116.514 51.1598 116.405 51.0993L116.4 51.0967Z" fill="#C7FD02"/>
<path d="M116.721 47.0717C116.307 47.0494 115.963 47.4002 116.017 47.8309C116.058 48.1552 116.348 48.3915 116.674 48.4119C118.653 48.5364 119.519 49.4619 119.484 51.4092C119.477 51.7793 119.771 52.085 120.141 52.0919C120.146 52.092 120.15 52.092 120.154 52.092C120.519 52.092 120.817 51.7999 120.824 51.434C120.874 48.7398 119.455 47.2313 116.721 47.0717Z" fill="#C7FD02"/>
<path d="M37.042 47.9911C37.1652 47.5404 36.7947 47.1502 36.3565 47.1758C33.5921 47.3299 32.1723 48.8016 32.2557 51.4301C32.2672 51.793 32.6301 52.0756 32.9916 51.9634C33.0239 51.9534 33.0677 51.9323 33.1362 51.8877C33.4142 51.7065 33.5867 51.4057 33.5943 51.0842C33.635 49.379 34.5159 48.5648 36.4222 48.4553C36.7092 48.4388 36.9693 48.2569 37.042 47.9911Z" fill="#C7FD02"/>
</svg>
