<svg id="Layer_1" xmlns="http://www.w3.org/2000/svg" viewBox="0 0 1080 460"><path d="M294.964,147.67c-16.647,3.287-30.942,14.295-42.794,33.053-2.564,4.071-8.474,4.313-11.369.482-17.069-22.89-36.37-34.35-57.963-34.35-19.15,0-35.526,7.539-49.187,22.588-13.631,14.928-20.477,32.088-20.477,51.539,0,18.698,6.122,34.681,18.366,48.041,12.244,13.179,28.167,19.753,47.77,19.753,11.942,0,22.528-2.503,31.786-7.539,8.776-5.006,15.531-11.038,20.236-18.125,4.222-6.574,9.892-18.668,16.949-36.219,11.611-28.891,22.679-46.925,33.173-54.133,5.489-3.8,11.189-6.605,17.099-8.444,3.167-.995,5.338-3.86,5.338-7.178v-2.051c0-4.705-4.313-8.324-8.927-7.419ZM182.627,254.156c-20.628,0-37.335-16.707-37.335-37.335s16.707-37.305,37.335-37.305,37.305,16.707,37.305,37.305-16.707,37.335-37.305,37.335ZM358.657,192.755c-11.46-10.827-24.398-16.255-38.843-16.255-9.258,0-18.668,2.925-28.228,8.716-9.59,5.82-20.025,23.221-31.303,52.263-10.525,26.81-21.804,44.633-33.897,53.409-4.373,3.137-9.138,5.73-14.264,7.69-2.865,1.116-4.765,3.89-4.765,6.997,0,4.222,3.468,7.57,7.449,7.57.633,0,1.297-.09,1.93-.271,17.582-4.856,32.51-17.672,44.814-38.421,4.101-6.906,13.872-7.66,19.06-1.508,11.55,13.692,25.151,20.538,40.864,20.538,15.833,0,28.8-6.182,38.843-18.577,10.193-12.576,15.29-26.297,15.29-41.195,0-16.466-5.639-30.128-16.949-40.954Z" fill="#001c24"/><path d="M418.139,216.296c0-34.981,25.063-58.961,56.977-58.961,31.519,0,50.229,16.631,53.737,43.346.237,1.808-1.188,3.416-3.011,3.491l-15.652.642c-1.599.066-3.062-1.037-3.309-2.618-2.378-15.217-13.343-25.027-31.223-25.027-20.736,0-34.079,15.326-34.079,39.127,0,24.342,13.704,39.847,35.881,39.847,14.436,0,25.372-7.442,29.784-19.437.747-2.03-.832-4.183-2.996-4.183h-22.733c-1.742,0-3.154-1.412-3.154-3.154v-10.462c0-1.742,1.412-3.154,3.154-3.154h44.901c1.742,0,3.154,1.412,3.154,3.154v51.031c0,1.742-1.412,3.154-3.154,3.154h-13.708c-1.742,0-3.154-1.412-3.154-3.154v-3.454c0-2.875-3.455-4.178-5.467-2.124-7.115,7.264-18.284,10.896-30.595,10.896-31.734,0-55.355-23.801-55.355-58.961Z" fill="#001c24"/><path d="M600.33,193.577h15.33c1.742,0,3.154,1.412,3.154,3.154v73.209c0,1.742-1.412,3.154-3.154,3.154h-15.33c-1.742,0-3.154-1.412-3.154-3.154h0c0-2.765-3.314-4.203-5.301-2.281-4.931,4.77-11.974,7.599-20.302,7.599-21.097,0-28.309-14.244-28.309-31.915v-46.611c0-1.742,1.412-3.154,3.154-3.154h15.33c1.742,0,3.154,1.412,3.154,3.154v42.284c0,12.082,4.508,19.293,15.146,19.293s17.13-8.654,17.13-22.178v-39.399c0-1.742,1.412-3.154,3.154-3.154Z" fill="#001c24"/><path d="M705.571,246.743c2.024.209,3.32,2.259,2.674,4.188-5.136,15.358-18.282,24.326-37.151,24.326-24.522,0-42.191-15.688-42.191-40.749s17.85-43.095,41.651-43.095c25.965,0,39.307,18.031,39.307,39.669v4.598c0,1.742-1.412,3.154-3.154,3.154h-52.873c-1.996,0-3.559,1.85-3.105,3.793,2.257,9.677,10.676,16.222,21.086,16.222,9.751,0,15.868-3.788,19.179-11.364.548-1.253,1.778-2.063,3.138-1.922l11.437,1.179ZM685.086,225.312c1.988,0,3.553-1.832,3.099-3.767-1.808-7.701-7.398-14.264-17.81-14.264-10.223,0-16.056,5.989-18.754,13.965-.678,2.004.906,4.067,3.021,4.067h30.444Z" fill="#001c24"/><path d="M730.805,246.15c1.443-.055,2.768.877,3.132,2.275,2.079,7.985,8.968,12.047,19.013,12.047,7.934,0,14.425-2.704,14.425-8.474,0-5.41-3.608-7.754-11.54-9.016l-12.622-2.164c-16.95-2.704-26.325-9.016-26.325-23.801,0-15.146,12.802-25.604,32.996-25.604,20.447,0,33.26,8.568,36.124,23.965.353,1.897-1.062,3.685-2.99,3.763l-11.763.476c-1.434.058-2.742-.864-3.13-2.245-2.092-7.448-8.097-11.173-18.422-11.173-7.752,0-12.802,3.426-12.802,8.836,0,4.326,2.886,6.852,8.656,7.752l15.146,2.526c16.768,2.704,26.686,9.736,26.686,24.702,0,16.228-14.064,25.243-34.619,25.243-19.42,0-34.57-7.908-37.599-24.909-.335-1.882,1.092-3.64,3.003-3.713l12.631-.485Z" fill="#001c24"/><path d="M796.853,208.723h-5.052c-1.742,0-3.154-1.412-3.154-3.154v-6.977c0-1.542,1.114-2.857,2.635-3.111l2.775-.463c7.754-1.262,9.918-5.228,11.72-12.622l1.955-8.381c.333-1.427,1.606-2.437,3.071-2.437h7.507c1.742,0,3.154,1.412,3.154,3.154v15.69c0,1.742,1.412,3.154,3.154,3.154h15.33c1.742,0,3.154,1.412,3.154,3.154v8.838c0,1.742-1.412,3.154-3.154,3.154h-15.33c-1.742,0-3.154-1.412-3.154-3.154v36.154c0,6.852,3.066,9.918,9.556,9.918,3.014,0,6.115-.787,9.303-1.996,2.042-.774,4.221.779,4.221,2.962v7.861c0,1.023-.483,2.004-1.326,2.583-5.447,3.743-11.674,5.899-20.672,5.899-12.262,0-22.539-5.41-22.539-22.359v-41.022c0-1.742-1.412-3.154-3.154-3.154Z" fill="#001c24"/><path d="M874.831,162.653v107.286c0,1.742-1.412,3.154-3.154,3.154h-15.33c-1.742,0-3.154-1.412-3.154-3.154v-107.286c0-1.742,1.412-3.154,3.154-3.154h15.33c1.742,0,3.154,1.412,3.154,3.154Z" fill="#001c24"/><path d="M903.348,298.29l9.917-23.626c.325-.775.328-1.648.007-2.425l-30.696-74.305c-.858-2.076.668-4.358,2.915-4.358h15.867c1.291,0,2.451.787,2.929,1.986l20.846,52.287h.722l20.667-52.279c.476-1.204,1.639-1.994,2.933-1.994h14.214c2.252,0,3.778,2.293,2.91,4.37l-42.98,102.78c-.491,1.173-1.638,1.937-2.91,1.937h-14.434c-2.254,0-3.78-2.296-2.908-4.374Z" fill="#001c24"/></svg>
