<svg id="Layer_1" xmlns="http://www.w3.org/2000/svg" viewBox="0 0 460 460"><path d="M301.517,113.577c-23.541,4.649-43.755,20.214-60.514,46.74-3.625,5.757-11.983,6.098-16.078.682-24.138-32.368-51.431-48.574-81.965-48.574-27.08,0-50.237,10.661-69.555,31.942-19.276,21.109-28.956,45.375-28.956,72.882,0,26.44,8.657,49.043,25.971,67.935,17.314,18.636,39.831,27.933,67.551,27.933,16.888,0,31.857-3.539,44.949-10.661,12.41-7.079,21.962-15.608,28.615-25.63,5.971-9.297,13.988-26.398,23.967-51.218,16.419-40.855,32.07-66.357,46.91-76.549,7.762-5.373,15.822-9.339,24.18-11.941,4.478-1.407,7.548-5.459,7.548-10.15v-2.9c0-6.653-6.098-11.77-12.623-10.491ZM142.661,264.159c-29.17,0-52.796-23.626-52.796-52.796s23.626-52.753,52.796-52.753,52.753,23.626,52.753,52.753-23.626,52.796-52.753,52.796ZM391.585,177.333c-16.206-15.31-34.501-22.986-54.928-22.986-13.092,0-26.398,4.137-39.917,12.325-13.561,8.231-28.317,32.837-44.266,73.905-14.884,37.912-30.833,63.116-47.934,75.526-6.183,4.435-12.922,8.103-20.171,10.875-4.051,1.578-6.738,5.501-6.738,9.894,0,5.971,4.904,10.704,10.534,10.704.895,0,1.834-.128,2.729-.384,24.862-6.866,45.972-24.991,63.372-54.331,5.8-9.766,19.617-10.832,26.952-2.132,16.333,19.361,35.566,29.042,57.785,29.042,22.389,0,40.727-8.743,54.928-26.27,14.414-17.783,21.621-37.187,21.621-58.254,0-23.285-7.975-42.603-23.967-57.913Z" fill="#c5d92d"/></svg>
